<?xml version="1.0" encoding="UTF-8" standalone="no"?>
<!-- Created with Inkscape (http://www.inkscape.org/) -->

<svg
   width="1524.1543"
   height="679.297"
   viewBox="0 0 403.26582 179.73067"
   version="1.1"
   id="svg1"
   inkscape:version="1.3 (0e150ed6c4, 2023-07-21)"
   sodipodi:docname="feature.svg"
   inkscape:export-filename="test.svg"
   inkscape:export-xdpi="96"
   inkscape:export-ydpi="96"
   xmlns:inkscape="http://www.inkscape.org/namespaces/inkscape"
   xmlns:sodipodi="http://sodipodi.sourceforge.net/DTD/sodipodi-0.dtd"
   xmlns="http://www.w3.org/2000/svg"
   xmlns:svg="http://www.w3.org/2000/svg">
  <sodipodi:namedview
     id="namedview1"
     pagecolor="#ffffff"
     bordercolor="#999999"
     borderopacity="1"
     inkscape:showpageshadow="2"
     inkscape:pageopacity="0"
     inkscape:pagecheckerboard="true"
     inkscape:deskcolor="#d1d1d1"
     inkscape:document-units="mm"
     showgrid="false"
     inkscape:zoom="0.3703125"
     inkscape:cx="518.48101"
     inkscape:cy="857.38397"
     inkscape:window-width="1920"
     inkscape:window-height="1011"
     inkscape:window-x="0"
     inkscape:window-y="0"
     inkscape:window-maximized="1"
     inkscape:current-layer="layer1">
    <inkscape:grid
       id="grid10"
       units="mm"
       originx="-197.92282"
       originy="-200.35152"
       spacingx="0.99999998"
       spacingy="1"
       empcolor="#0099e5"
       empopacity="0.30196078"
       color="#0099e5"
       opacity="0.14901961"
       empspacing="5"
       dotted="false"
       gridanglex="30"
       gridanglez="30"
       visible="false" />
  </sodipodi:namedview>
  <defs
     id="defs1" />
  <g
     inkscape:label="Layer 1"
     inkscape:groupmode="layer"
     id="layer1"
     transform="translate(-52.367081,-53.009672)">
    <g
       id="g22"
       transform="translate(-3.5856759,-16.512801)">
      <path
         style="fill:none;stroke:#ff9d94;stroke-width:2.28453;stroke-dasharray:none;stroke-opacity:1"
         id="path26"
         d="m 412.31151,224.86104 c -1.06633,0.66815 -2.07704,1.43456 -3.19895,2.00444 -12.60412,6.40229 -26.55075,10.0439 -40.36987,12.66813 -21.75767,4.13172 -30.27118,4.26839 -53.05509,6.29321 -10.68143,0.39537 -21.35604,1.08048 -32.04424,1.18607 -23.47859,0.23199 -45.46054,-0.74162 -68.8529,-2.86856 -21.76137,-1.97863 -43.86569,-5.00479 -65.33807,-9.11544 -9.29663,-1.77973 -18.48437,-4.08729 -27.72655,-6.13095 -15.32659,-4.33949 -26.29599,-6.7534 -40.581864,-13.13889 -7.848009,-3.50787 -18.372829,-8.57673 -20.433874,-18.22292 -0.485249,-2.27107 0.201844,-4.64028 0.302765,-6.96042 1.022649,-2.30223 1.662972,-4.81571 3.067912,-6.90668 6.951306,-10.34536 20.505425,-16.67137 31.690483,-20.77862 16.261208,-5.9713 25.639528,-7.27304 42.942068,-10.97211 8.92406,-1.26074 17.80915,-2.83747 26.77215,-3.78225 10.34947,-1.09093 20.73944,-1.81703 31.13402,-2.32157 33.96399,-1.64862 68.04939,-0.75978 101.85707,2.96562 10.90769,1.20197 21.73675,3.03394 32.60511,4.55092 26.62863,4.81079 53.31061,10.58452 78.54997,20.59282 9.75872,3.86968 22.17681,9.85912 30.79044,16.33353 2.41399,1.81447 4.22203,4.31893 6.33306,6.47838 4.40872,6.41635 6.53936,7.78707 7.6778,15.33741 0.74546,4.94421 -0.34054,7.18998 -1.59073,11.71107 0,0 3.44516,2.18052 3.44516,2.18052 v 0 c 1.22628,-4.62348 2.31557,-6.97278 1.52762,-12.0069 -1.21224,-7.74493 -3.38741,-9.12551 -7.9406,-15.69567 -3.92912,-3.39374 -7.59822,-7.1142 -11.78736,-10.18121 -8.74201,-6.4003 -20.42381,-11.97874 -30.33239,-15.82945 -25.06622,-9.74128 -51.53685,-15.26859 -77.91797,-19.98779 -10.8461,-1.49405 -21.65404,-3.29765 -32.5383,-4.48216 -33.87648,-3.68663 -68.01712,-4.54893 -102.05056,-3.09428 -10.4916,0.44843 -20.98264,1.07074 -31.43387,2.09367 -9.03514,0.88431 -17.99509,2.41665 -26.99267,3.62497 -17.3413,3.53243 -27.14227,4.85064 -43.515193,10.59629 -11.271595,3.95548 -25.362113,10.2279 -32.478641,20.53486 -1.457591,2.11105 -2.125782,4.66962 -3.188656,7.00444 -0.120682,2.38363 -0.858336,4.81632 -0.362196,7.15087 1.573394,7.4035 7.98845,11.59844 13.844807,15.49596 3.833374,2.55119 7.962609,4.67118 12.185187,6.50776 14.009261,6.09324 24.979912,8.43646 39.966812,12.5493 9.16294,1.97062 18.27562,4.19123 27.48875,5.91186 21.55975,4.02649 43.30226,6.94984 65.14355,8.92957 23.57857,2.13722 45.38515,3.14691 69.04957,3.01212 10.75987,-0.0613 21.50939,-0.67794 32.26409,-1.0169 23.16928,-1.85014 31.56019,-1.931 53.72517,-5.79441 14.14613,-2.46572 28.43026,-5.92284 41.55653,-11.89253 1.1744,-0.5341 2.24747,-1.26756 3.3712,-1.90135 z" />
      <g
         id="text1"
         style="font-size:50.8px;line-height:0;stroke-width:0.454"
         aria-label="Take a look&#10;at my&#10;Feature Project">
        <path
           style="line-height:1;font-family:'Bright DEMO';-inkscape-font-specification:'Bright DEMO, Normal';text-align:center;baseline-shift:baseline;text-anchor:middle;fill:#008e53"
           d="m 177.28675,69.567933 h -22.1488 c -0.9652,0 -1.27,0.4064 -1.3716,1.3716 -0.1524,1.3716 -0.7112,4.0132 -0.7112,4.3688 0,0.5588 0.8128,0.6604 1.27,0.2032 1.6764,-1.6256 5.1308,-4.5212 7.1628,-4.5212 h 1.1684 v 11.4808 c 0,3.556 -0.4064,10.2616 -2.3368,11.684 -0.508,0.4064 -0.508,1.27 0.5588,1.27 h 10.668 c 1.1176,0 1.0668,-0.8636 0.5588,-1.27 -1.9304,-1.4224 -2.3368,-8.128 -2.3368,-11.684 v -11.4808 h 1.1684 c 2.032,0 5.4864,2.8956 7.1628,4.5212 0.508,0.4572 1.27,0.3556 1.27,-0.2032 0,-0.3556 -0.5588,-2.9972 -0.7112,-4.3688 -0.1016,-0.9652 -0.4064,-1.3716 -1.3716,-1.3716 z m 15.95114,24.7904 c -1.778,-1.3208 -2.0828,-2.4384 -2.0828,-4.318 v -4.1656 c 0,-5.4864 -4.1148,-9.2456 -9.5504,-9.2456 -4.6736,0 -7.2136,2.3368 -7.2136,4.5212 0,2.9464 7.62,1.9304 6.5532,-0.5588 -0.6096,-1.3208 -0.6096,-2.54 0.1524,-2.54 1.8288,0 2.9464,3.3528 2.9464,6.2992 v 1.524 c -1.1176,-1.4732 -2.9464,-2.4384 -4.9784,-2.4384 -3.4036,0 -6.1976,2.6924 -6.1976,5.9944 0,3.302 2.794,5.9944 6.1976,5.9944 2.032,0 3.8608,-0.9652 4.9784,-2.4384 0,0 1.0668,2.4384 3.81,2.4384 h 5.1816 c 0.5588,0 0.7112,-0.6604 0.2032,-1.0668 z m -11.938,-1.6764 c -1.3716,0 -2.4892,-1.4732 -2.4892,-3.2512 0,-1.778 1.1176,-3.2512 2.4892,-3.2512 1.4224,0 2.54,1.4732 2.54,3.2512 0,1.778 -1.1176,3.2512 -2.54,3.2512 z m 37.49044,1.4732 c -5.3848,-3.4036 -6.4008,-11.684 -10.9728,-12.9032 1.016,-0.5588 2.032,-0.8636 3.2004,-0.1016 3.7084,2.3368 7.3152,-1.7272 3.8608,-3.8608 -4.2164,-2.6416 -8.5344,3.7592 -11.1252,4.4704 0,-3.556 0.254,-7.4168 0.9144,-10.922 0.1016,-0.6604 0.5588,-1.524 -0.508,-1.27 -1.8796,0.3556 -4.1148,3.7084 -8.9916,3.7084 -0.508,0 -0.7112,0.6096 -0.2032,1.016 1.778,1.3208 2.0828,2.4384 2.0828,4.318 v 11.43 c 0,1.8796 -0.3048,2.9972 -2.0828,4.318 -0.508,0.4064 -0.3048,1.0668 0.2032,1.0668 h 10.0584 c 1.1176,0 1.0668,-0.8636 0.5588,-1.27 -1.1176,-0.8128 -1.9304,-5.3848 -2.032,-10.922 2.6416,-0.6604 3.6576,4.064 4.3688,6.8072 0.4572,1.8796 0.6096,2.9972 -0.7112,4.318 -0.4064,0.4064 0,1.0668 0.5588,1.0668 h 10.668 c 1.0668,0 0.8128,-0.8636 0.1524,-1.27 z m 17.57681,-4.572 c -1.4224,1.8796 -4.5212,2.54 -6.4008,2.032 -2.032,-0.6096 -3.1496,-2.032 -3.6576,-3.7084 1.0668,0.4572 2.2352,0.762 3.556,0.762 3.9624,0 7.2136,-2.6924 7.2136,-5.9944 0,-3.3528 -4.2672,-6.0452 -8.2296,-6.0452 -6.096,0 -10.5664,4.2164 -10.5664,9.398 0,5.1816 4.5212,9.398 10.16,9.398 3.9116,0 7.3152,-2.0828 8.9916,-5.08 0.3048,-0.5588 -0.5588,-1.4224 -1.0668,-0.762 z m -7.7724,-11.5316 c 1.3716,0 2.3368,2.0828 2.3368,4.6228 0,2.4892 -0.9652,4.572 -2.3368,4.572 -1.2192,0 -2.4892,-1.6764 -2.4892,-4.3688 0,-3.2512 1.6764,-4.826 2.4892,-4.826 z m 38.86198,16.3068 c -1.778,-1.3208 -2.0828,-2.4384 -2.0828,-4.318 v -4.1656 c 0,-5.4864 -4.1148,-9.2456 -9.5504,-9.2456 -4.6736,0 -7.2136,2.3368 -7.2136,4.5212 0,2.9464 7.62,1.9304 6.5532,-0.5588 -0.6096,-1.3208 -0.6096,-2.54 0.1524,-2.54 1.8288,0 2.9464,3.3528 2.9464,6.2992 v 1.524 c -1.1176,-1.4732 -2.9464,-2.4384 -4.9784,-2.4384 -3.4036,0 -6.1976,2.6924 -6.1976,5.9944 0,3.302 2.794,5.9944 6.1976,5.9944 2.032,0 3.8608,-0.9652 4.9784,-2.4384 0,0 1.0668,2.4384 3.81,2.4384 h 5.1816 c 0.5588,0 0.7112,-0.6604 0.2032,-1.0668 z m -11.938,-1.6764 c -1.3716,0 -2.4892,-1.4732 -2.4892,-3.2512 0,-1.778 1.1176,-3.2512 2.4892,-3.2512 1.4224,0 2.54,1.4732 2.54,3.2512 0,1.778 -1.1176,3.2512 -2.54,3.2512 z m 33.02,1.4732 c -1.8796,-1.4224 -2.8956,-13.6144 -1.1176,-23.3172 0.1016,-0.6604 0.5588,-1.524 -0.508,-1.27 -1.8796,0.3556 -4.1148,3.7084 -8.9916,3.7084 -0.508,0 -0.7112,0.6096 -0.2032,1.016 1.778,1.3208 2.0828,2.4384 2.0828,4.318 v 11.43 c 0,1.8796 -0.3048,2.9972 -2.0828,4.318 -0.508,0.4064 -0.3048,1.0668 0.2032,1.0668 h 10.0584 c 1.1176,0 1.0668,-0.8636 0.5588,-1.27 z m 10.46482,-17.526 c -5.6388,0 -10.16,4.2164 -10.16,9.398 0,5.1816 4.5212,9.398 10.16,9.398 5.588,0 10.1092,-4.2164 10.1092,-9.398 0,-5.1816 -4.5212,-9.398 -10.1092,-9.398 z m 0,17.3736 c -1.6256,0 -2.9464,-3.6068 -2.9464,-7.9756 0,-4.4196 1.3208,-7.9756 2.9464,-7.9756 1.5748,0 2.8956,3.556 2.8956,7.9756 0,4.3688 -1.3208,7.9756 -2.8956,7.9756 z m 21.58996,-17.3736 c -5.6388,0 -10.16,4.2164 -10.16,9.398 0,5.1816 4.5212,9.398 10.16,9.398 5.588,0 10.1092,-4.2164 10.1092,-9.398 0,-5.1816 -4.5212,-9.398 -10.1092,-9.398 z m 0,17.3736 c -1.6256,0 -2.9464,-3.6068 -2.9464,-7.9756 0,-4.4196 1.3208,-7.9756 2.9464,-7.9756 1.5748,0 2.8956,3.556 2.8956,7.9756 0,4.3688 -1.3208,7.9756 -2.8956,7.9756 z m 34.0868,0.1524 c -5.3848,-3.4036 -6.4008,-11.684 -10.9728,-12.9032 1.016,-0.5588 2.032,-0.8636 3.2004,-0.1016 3.7084,2.3368 7.3152,-1.7272 3.8608,-3.8608 -4.2164,-2.6416 -8.5344,3.7592 -11.1252,4.4704 0,-3.556 0.254,-7.4168 0.9144,-10.922 0.1016,-0.6604 0.5588,-1.524 -0.508,-1.27 -1.8796,0.3556 -4.1148,3.7084 -8.9916,3.7084 -0.508,0 -0.7112,0.6096 -0.2032,1.016 1.778,1.3208 2.0828,2.4384 2.0828,4.318 v 11.43 c 0,1.8796 -0.3048,2.9972 -2.0828,4.318 -0.508,0.4064 -0.3048,1.0668 0.2032,1.0668 h 10.0584 c 1.1176,0 1.0668,-0.8636 0.5588,-1.27 -1.1176,-0.8128 -1.9304,-5.3848 -2.032,-10.922 2.6416,-0.6604 3.6576,4.064 4.3688,6.8072 0.4572,1.8796 0.6096,2.9972 -0.7112,4.318 -0.4064,0.4064 0,1.0668 0.5588,1.0668 h 10.668 c 1.0668,0 0.8128,-0.8636 0.1524,-1.27 z"
           id="path3" />
        <path
           style="line-height:1;font-family:'Bright DEMO';-inkscape-font-specification:'Bright DEMO, Normal';text-align:center;baseline-shift:baseline;text-anchor:middle;fill:#008e53"
           d="m 223.8195,145.15833 c -1.778,-1.3208 -2.0828,-2.4384 -2.0828,-4.318 v -4.1656 c 0,-5.4864 -4.1148,-9.2456 -9.5504,-9.2456 -4.6736,0 -7.2136,2.3368 -7.2136,4.5212 0,2.9464 7.62,1.9304 6.5532,-0.5588 -0.6096,-1.3208 -0.6096,-2.54 0.1524,-2.54 1.8288,0 2.9464,3.3528 2.9464,6.2992 v 1.524 c -1.1176,-1.4732 -2.9464,-2.4384 -4.9784,-2.4384 -3.4036,0 -6.1976,2.6924 -6.1976,5.9944 0,3.302 2.794,5.9944 6.1976,5.9944 2.032,0 3.8608,-0.9652 4.9784,-2.4384 0,0 1.0668,2.4384 3.81,2.4384 h 5.1816 c 0.5588,0 0.7112,-0.6604 0.2032,-1.0668 z m -11.938,-1.6764 c -1.3716,0 -2.4892,-1.4732 -2.4892,-3.2512 0,-1.778 1.1176,-3.2512 2.4892,-3.2512 1.4224,0 2.54,1.4732 2.54,3.2512 0,1.778 -1.1176,3.2512 -2.54,3.2512 z m 25.85725,-13.8176 h -2.3368 c 0.1524,-1.6764 0.4064,-3.4036 0.7112,-5.1816 0.1016,-0.6604 -0.3556,-1.4732 -1.3716,-1.0668 -2.3876,0.8636 -3.4544,6.2484 -8.3312,6.2484 h -0.3048 c -0.6604,0 -0.8636,0.5588 -0.8636,1.2192 0,0.6604 0.2032,1.2192 0.8636,1.2192 h 1.1176 c 0.7112,1.6764 0.6604,3.9624 0.6604,5.2832 0,2.1844 0.0508,5.9944 -1.6256,7.5692 -0.508,0.4572 -0.508,1.27 0.1524,1.27 h 10.2616 c 1.1176,0 1.0668,-0.8636 0.5588,-1.27 -1.3716,-1.0668 -2.286,-6.2992 -1.9812,-12.8524 h 2.4892 c 0.6604,0 0.8636,-0.5588 0.8636,-1.2192 0,-0.6604 -0.2032,-1.2192 -0.8636,-1.2192 z m 46.43116,15.494 c -1.7272,-1.3208 -2.0828,-2.4384 -2.0828,-4.318 v -3.3528 c 0,-5.588 -3.3528,-10.0584 -8.0264,-10.0584 -2.8448,0 -4.572,2.794 -5.4356,5.2832 -1.3208,-3.1496 -3.9116,-5.2832 -7.112,-5.2832 -1.6764,0 -2.8956,1.27 -3.8608,2.8956 l 0.2032,-1.5748 c 0.1016,-0.6604 0.6096,-1.4732 -0.4572,-1.27 -1.9304,0.4064 -3.9624,3.7084 -8.83919,3.7084 -0.508,0 -0.7112,0.6096 -0.2032,1.016 1.778,1.3716 2.0828,2.4892 2.0828,4.3688 v 4.2672 c 0,1.8796 -0.3048,2.9972 -2.0828,4.318 -0.508,0.4064 -0.3048,1.0668 0.2032,1.0668 h 9.90599 c 1.0668,0 1.0668,-0.8636 0.508,-1.27 -1.4224,-1.0668 -2.1336,-4.6228 -1.778,-10.16 0.7112,-2.3368 1.5748,-4.572 2.5908,-4.572 3.302,0 4.2672,11.7856 1.016,14.732 -0.508,0.4572 -0.5588,1.27 0.508,1.27 h 10.1092 c 0.508,0 0.7112,-0.6604 0.2032,-1.0668 -1.778,-1.3208 -2.0828,-2.4384 -2.0828,-4.318 v -3.3528 c 0,-0.762 -0.0508,-1.4732 -0.2032,-2.1844 0.762,-2.8956 1.9304,-5.08 3.2004,-5.08 3.2512,0 4.1148,11.7856 0.8636,14.732 -0.508,0.4572 -0.5588,1.27 0.508,1.27 h 10.1092 c 0.508,0 0.7112,-0.6604 0.1524,-1.0668 z m 19.86282,-17.7292 h -5.8928 c -0.6604,0 -0.8636,0.6096 -0.508,1.0668 2.0828,2.3876 -0.9652,13.6144 -0.9652,13.6144 l -0.1016,0.4572 -0.1016,-0.1524 c -0.254,-0.4572 -4.4704,-8.2804 -1.8796,-13.9192 0.254,-0.5588 0,-1.0668 -0.508,-1.0668 h -11.0744 c -1.1176,0 -0.8128,0.8636 -0.1524,1.27 1.4224,0.8636 2.6924,2.6416 4.5212,8.7376 l 1.9812,6.2484 c 0.5588,1.778 0.8636,2.54 2.8956,2.54 h 3.2004 l -0.5588,1.6256 c -2.6924,7.7724 -6.858,8.5344 -5.842,4.1656 0.9144,-4.064 -4.9784,-5.2832 -7.7724,-1.6256 -2.3368,3.0988 -0.1524,8.636 5.3848,8.636 2.9464,0 6.604,-1.8796 9.0932,-9.2964 l 2.1844,-7.0104 3.048,-9.906 c 0.6096,-1.8796 1.1176,-3.302 2.8956,-4.318 0.6604,-0.4064 0.762,-1.0668 0.1524,-1.0668 z"
           id="path4" />
        <path
           style="line-height:1.25;font-family:'Bright DEMO';-inkscape-font-specification:'Bright DEMO, Normal';text-align:center;baseline-shift:baseline;text-anchor:middle;fill:#008e53"
           d="m 130.34749,177.51793 h -15.4432 c -0.508,0 -0.7112,0.6096 -0.2032,1.016 1.778,1.3208 2.0828,2.4892 2.0828,4.318 v 15.1384 c 0,1.8796 -0.3048,2.9972 -2.0828,4.318 -0.508,0.4064 -0.3048,1.0668 0.2032,1.0668 h 10.2108 c 1.0668,0 1.0668,-0.8636 0.508,-1.27 -1.6764,-1.27 -1.7272,-6.6548 -1.7272,-10.3632 h 1.6764 c 3.1496,0 2.8956,1.1176 4.2164,2.8448 0.4064,0.508 1.0668,0.3556 1.0668,-0.3048 v -6.4516 c 0,-0.6604 -0.6604,-0.8636 -1.0668,-0.3048 -1.3208,1.7272 -1.0668,2.794 -4.2164,2.794 h -1.6764 c 0,-3.4036 -0.1524,-9.652 1.524,-11.3792 1.778,0 2.794,0.2032 4.064,2.4892 1.9304,3.302 6.7056,3.2004 6.7056,-0.6096 0,-2.54 -3.1496,-3.302 -5.842,-3.302 z m 19.76121,20.0152 c -1.4224,1.8796 -4.5212,2.54 -6.4008,2.032 -2.032,-0.6096 -3.1496,-2.032 -3.6576,-3.7084 1.0668,0.4572 2.2352,0.762 3.556,0.762 3.9624,0 7.2136,-2.6924 7.2136,-5.9944 0,-3.3528 -4.2672,-6.0452 -8.2296,-6.0452 -6.096,0 -10.5664,4.2164 -10.5664,9.398 0,5.1816 4.5212,9.398 10.16,9.398 3.9116,0 7.3152,-2.0828 8.9916,-5.08 0.3048,-0.5588 -0.5588,-1.4224 -1.0668,-0.762 z m -7.7724,-11.5316 c 1.3716,0 2.3368,2.0828 2.3368,4.6228 0,2.4892 -0.9652,4.572 -2.3368,4.572 -1.2192,0 -2.4892,-1.6764 -2.4892,-4.3688 0,-3.2512 1.6764,-4.826 2.4892,-4.826 z m 30.3276,16.3068 c -1.778,-1.3208 -2.0828,-2.4384 -2.0828,-4.318 v -4.1656 c 0,-5.4864 -4.1148,-9.2456 -9.5504,-9.2456 -4.6736,0 -7.2136,2.3368 -7.2136,4.5212 0,2.9464 7.62,1.9304 6.5532,-0.5588 -0.6096,-1.3208 -0.6096,-2.54 0.1524,-2.54 1.8288,0 2.9464,3.3528 2.9464,6.2992 v 1.524 c -1.1176,-1.4732 -2.9464,-2.4384 -4.9784,-2.4384 -3.4036,0 -6.1976,2.6924 -6.1976,5.9944 0,3.302 2.794,5.9944 6.1976,5.9944 2.032,0 3.8608,-0.9652 4.9784,-2.4384 0,0 1.0668,2.4384 3.81,2.4384 h 5.1816 c 0.5588,0 0.7112,-0.6604 0.2032,-1.0668 z m -11.938,-1.6764 c -1.3716,0 -2.4892,-1.4732 -2.4892,-3.2512 0,-1.778 1.1176,-3.2512 2.4892,-3.2512 1.4224,0 2.54,1.4732 2.54,3.2512 0,1.778 -1.1176,3.2512 -2.54,3.2512 z m 25.85725,-13.8176 h -2.3368 c 0.1524,-1.6764 0.4064,-3.4036 0.7112,-5.1816 0.1016,-0.6604 -0.3556,-1.4732 -1.3716,-1.0668 -2.3876,0.8636 -3.4544,6.2484 -8.3312,6.2484 h -0.3048 c -0.6604,0 -0.8636,0.5588 -0.8636,1.2192 0,0.6604 0.2032,1.2192 0.8636,1.2192 h 1.1176 c 0.7112,1.6764 0.6604,3.9624 0.6604,5.2832 0,2.1844 0.0508,5.9944 -1.6256,7.5692 -0.508,0.4572 -0.508,1.27 0.1524,1.27 h 10.2616 c 1.1176,0 1.0668,-0.8636 0.5588,-1.27 -1.3716,-1.0668 -2.286,-6.2992 -1.9812,-12.8524 h 2.4892 c 0.6604,0 0.8636,-0.5588 0.8636,-1.2192 0,-0.6604 -0.2032,-1.2192 -0.8636,-1.2192 z m 24.48561,-0.9144 c 0.1016,-0.6604 0.5588,-1.4732 -0.508,-1.27 -1.8796,0.4064 -3.9624,3.7084 -8.8392,3.7084 -0.508,0 -0.7112,0.6096 -0.2032,1.016 1.778,1.3716 2.0828,2.4892 2.0828,4.3688 v 4.2672 c -0.6604,1.524 -1.6256,3.048 -2.6924,3.048 -3.81,0 -4.0132,-9.0932 -2.7432,-15.1384 0.1524,-0.6604 0.6096,-1.4732 -0.4572,-1.27 -1.9304,0.4064 -3.9624,3.7084 -8.8392,3.7084 -0.508,0 -0.7112,0.6096 -0.2032,1.016 1.778,1.3716 2.0828,2.4892 2.0828,4.3688 0,7.5184 3.5052,9.652 8.0772,9.652 2.286,0 3.8608,-1.3208 4.9784,-2.9464 0.508,1.4732 1.9304,2.9464 4.1656,2.9464 h 4.6736 c 0.508,0 0.6096,-0.5588 0.1524,-1.0668 -3.1496,-3.7592 -2.3876,-12.3444 -1.7272,-16.4084 z m 18.18636,-1.3208 c -2.54,0 -4.8768,2.8956 -6.0452,4.6228 l 0.4064,-3.302 c 0.1016,-0.6604 0.6096,-1.4732 -0.4572,-1.27 -1.9304,0.4064 -3.9624,3.7084 -8.8392,3.7084 -0.508,0 -0.7112,0.6096 -0.2032,1.016 1.778,1.3716 2.0828,2.4892 2.0828,4.3688 v 4.2672 c 0,1.8796 -0.3048,2.9972 -2.0828,4.318 -0.508,0.4064 -0.3048,1.0668 0.2032,1.0668 h 9.906 c 1.0668,0 1.0668,-0.8636 0.508,-1.27 -1.4224,-1.0668 -2.1336,-4.6736 -1.778,-10.3124 0.9652,-1.8288 2.6924,-3.7084 3.9116,-3.7084 0.9144,0 0.4572,1.016 0.254,2.1336 -0.5588,3.9624 7.9756,2.3876 7.0104,-2.4384 -0.4064,-2.1336 -2.8956,-3.2004 -4.8768,-3.2004 z m 23.92684,12.954 c -1.4224,1.8796 -4.5212,2.54 -6.4008,2.032 -2.032,-0.6096 -3.1496,-2.032 -3.6576,-3.7084 1.0668,0.4572 2.2352,0.762 3.556,0.762 3.9624,0 7.2136,-2.6924 7.2136,-5.9944 0,-3.3528 -4.2672,-6.0452 -8.2296,-6.0452 -6.096,0 -10.5664,4.2164 -10.5664,9.398 0,5.1816 4.5212,9.398 10.16,9.398 3.9116,0 7.3152,-2.0828 8.9916,-5.08 0.3048,-0.5588 -0.5588,-1.4224 -1.0668,-0.762 z m -7.7724,-11.5316 c 1.3716,0 2.3368,2.0828 2.3368,4.6228 0,2.4892 -0.9652,4.572 -2.3368,4.572 -1.2192,0 -2.4892,-1.6764 -2.4892,-4.3688 0,-3.2512 1.6764,-4.826 2.4892,-4.826 z m 31.54677,-8.4836 h -12.5476 c -0.508,0 -0.7112,0.6096 -0.2032,1.016 1.778,1.3208 2.0828,2.4892 2.0828,4.318 v 15.1384 c 0,1.8796 -0.3048,2.9972 -2.0828,4.318 -0.508,0.4064 -0.3048,1.0668 0.2032,1.0668 h 10.2108 c 1.0668,0 1.0668,-0.8636 0.508,-1.27 -1.524,-1.1684 -1.7272,-5.842 -1.7272,-9.4488 h 3.556 c 4.7752,0 8.6868,-3.4036 8.6868,-7.5692 0,-4.1656 -3.9116,-7.5692 -8.6868,-7.5692 z m -3.556,13.6144 v -0.7112 c 0,-3.2004 -0.1016,-8.89 1.2192,-11.0744 2.1844,0.8636 3.7592,3.0988 3.7592,5.7404 0,3.048 -2.1844,5.6388 -4.9784,6.0452 z m 27.2796,-6.5532 c -2.54,0 -4.8768,2.8956 -6.0452,4.6228 l 0.4064,-3.302 c 0.1016,-0.6604 0.6096,-1.4732 -0.4572,-1.27 -1.9304,0.4064 -3.9624,3.7084 -8.8392,3.7084 -0.508,0 -0.7112,0.6096 -0.2032,1.016 1.778,1.3716 2.0828,2.4892 2.0828,4.3688 v 4.2672 c 0,1.8796 -0.3048,2.9972 -2.0828,4.318 -0.508,0.4064 -0.3048,1.0668 0.2032,1.0668 h 9.906 c 1.0668,0 1.0668,-0.8636 0.508,-1.27 -1.4224,-1.0668 -2.1336,-4.6736 -1.778,-10.3124 0.9652,-1.8288 2.6924,-3.7084 3.9116,-3.7084 0.9144,0 0.4572,1.016 0.254,2.1336 -0.5588,3.9624 7.9756,2.3876 7.0104,-2.4384 -0.4064,-2.1336 -2.8956,-3.2004 -4.8768,-3.2004 z m 15.59566,0 c -5.6388,0 -10.16,4.2164 -10.16,9.398 0,5.1816 4.5212,9.398 10.16,9.398 5.588,0 10.1092,-4.2164 10.1092,-9.398 0,-5.1816 -4.5212,-9.398 -10.1092,-9.398 z m 0,17.3736 c -1.6256,0 -2.9464,-3.6068 -2.9464,-7.9756 0,-4.4196 1.3208,-7.9756 2.9464,-7.9756 1.5748,0 2.8956,3.556 2.8956,7.9756 0,4.3688 -1.3208,7.9756 -2.8956,7.9756 z m 21.48837,-16.0528 c 0.1016,-0.6604 0.55879,-1.4732 -0.508,-1.27 -1.8796,0.4064 -4.1656,3.7084 -8.9916,3.7084 -0.5588,0 -0.762,0.6096 -0.2032,1.016 1.7272,1.3716 2.0828,2.8956 2.0828,7.112 0,10.2108 3.2512,15.748 -0.1524,17.7292 -2.286,1.3716 -5.8928,-1.8796 -4.1148,-3.7084 2.1336,-2.1844 -1.0668,-5.7912 -4.9784,-3.048 -4.1148,2.8448 -0.762,8.7884 6.7564,8.7884 6.9088,0 11.53159,-4.2164 10.2616,-10.2616 -1.0668,-5.2324 -1.1176,-13.97 -0.1524,-20.066 z m -5.9944,-0.9652 c 2.032,0 4.064,-1.6764 4.5212,-3.7084 0.4572,-2.0828 -0.8636,-3.7084 -2.8956,-3.7084 -2.0828,0 -4.1148,1.6256 -4.5212,3.7084 -0.4572,2.032 0.8128,3.7084 2.8956,3.7084 z m 25.95883,12.5984 c -1.4224,1.8796 -4.5212,2.54 -6.4008,2.032 -2.032,-0.6096 -3.1496,-2.032 -3.6576,-3.7084 1.0668,0.4572 2.2352,0.762 3.556,0.762 3.9624,0 7.2136,-2.6924 7.2136,-5.9944 0,-3.3528 -4.2672,-6.0452 -8.2296,-6.0452 -6.096,0 -10.5664,4.2164 -10.5664,9.398 0,5.1816 4.5212,9.398 10.16,9.398 3.9116,0 7.3152,-2.0828 8.9916,-5.08 0.3048,-0.5588 -0.5588,-1.4224 -1.0668,-0.762 z m -7.7724,-11.5316 c 1.3716,0 2.3368,2.0828 2.3368,4.6228 0,2.4892 -0.9652,4.572 -2.3368,4.572 -1.2192,0 -2.4892,-1.6764 -2.4892,-4.3688 0,-3.2512 1.6764,-4.826 2.4892,-4.826 z m 21.13281,0 c 1.7272,0 1.524,2.8448 1.8288,6.5532 0.3556,3.7084 8.0264,0.4572 6.0452,-3.048 -1.9304,-3.4544 -5.0292,-4.9276 -8.89,-4.9276 -5.6388,0 -10.16,4.2164 -10.16,9.398 0,5.1816 4.5212,9.398 10.16,9.398 3.9116,0 7.3152,-2.0828 8.9916,-5.08 0.3048,-0.5588 -0.5588,-1.4224 -1.0668,-0.762 -1.4224,1.8796 -4.5212,2.54 -6.4008,2.032 -6.9088,-1.9812 -3.302,-13.5636 -0.508,-13.5636 z m 21.64078,0.8128 h -2.3368 c 0.1524,-1.6764 0.4064,-3.4036 0.7112,-5.1816 0.1016,-0.6604 -0.3556,-1.4732 -1.3716,-1.0668 -2.3876,0.8636 -3.4544,6.2484 -8.3312,6.2484 h -0.3048 c -0.6604,0 -0.8636,0.5588 -0.8636,1.2192 0,0.6604 0.2032,1.2192 0.8636,1.2192 h 1.1176 c 0.7112,1.6764 0.6604,3.9624 0.6604,5.2832 0,2.1844 0.0508,5.9944 -1.6256,7.5692 -0.508,0.4572 -0.508,1.27 0.1524,1.27 h 10.2616 c 1.1176,0 1.0668,-0.8636 0.5588,-1.27 -1.3716,-1.0668 -2.286,-6.2992 -1.9812,-12.8524 h 2.4892 c 0.6604,0 0.8636,-0.5588 0.8636,-1.2192 0,-0.6604 -0.2032,-1.2192 -0.8636,-1.2192 z"
           id="path5" />
      </g>
      <path
         sodipodi:type="star"
         style="fill:#f9d764;fill-opacity:1;stroke:none;stroke-width:0.454001"
         id="path22"
         inkscape:flatsided="false"
         sodipodi:sides="5"
         sodipodi:cx="170.29742"
         sodipodi:cy="124.36298"
         sodipodi:r1="54.967922"
         sodipodi:r2="27.483961"
         sodipodi:arg1="-0.43057912"
         sodipodi:arg2="0.19773941"
         inkscape:rounded="0"
         inkscape:randomized="0"
         d="m 220.2481,101.41953 -23.00229,28.34277 10.30774,35.01669 -34.06367,-13.11809 -30.11758,20.624 1.94978,-36.45019 -28.92143,-22.27036 35.26871,-9.40937 12.24315,-34.387833 19.84748,30.634883 z"
         inkscape:transform-center-x="0.45176105"
         inkscape:transform-center-y="-0.76405127"
         transform="matrix(0.22896569,0,0,0.22896569,396.55339,200.25325)" />
    </g>
  </g>
</svg>
