<?xml version="1.0" encoding="UTF-8" standalone="no"?>
<!-- Created with Inkscape (http://www.inkscape.org/) -->

<svg
   width="120"
   height="120"
   viewBox="0 0 31.749999 31.75"
   version="1.1"
   id="svg1"
   xmlns="http://www.w3.org/2000/svg"
   xmlns:svg="http://www.w3.org/2000/svg">
  <defs
     id="defs1" />
  <g
     id="layer1">
    <path
       d="m 14.798644,5.8317591 a 10.09194,10.09194 0 0 1 0.119889,0.079787 10.09194,10.09194 0 0 1 0.4243,0.3153866 10.09194,10.09194 0 0 1 0.406418,0.3367953 10.09194,10.09194 0 0 1 0.388766,0.3575712 10.09194,10.09194 0 0 1 0.369849,0.3778841 10.09194,10.09194 0 0 1 0.349269,0.3968702 10.09194,10.09194 0 0 1 0.327888,0.414128 10.09194,10.09194 0 0 1 0.306105,0.430522 10.09194,10.09194 0 0 1 0.282428,0.446224 10.09194,10.09194 0 0 1 0.259212,0.460657 10.09194,10.09194 0 0 1 0.234565,0.473133 10.09194,10.09194 0 0 1 0.210149,0.4849775 10.09194,10.09194 0 0 1 0.183436,0.495264 10.09194,10.09194 0 0 1 0.157818,0.504518 10.09194,10.09194 0 0 1 0.131399,0.512041 10.09194,10.09194 0 0 1 0.104178,0.517843 10.09194,10.09194 0 0 1 0.07656,0.522774 10.09194,10.09194 0 0 1 0.04963,0.525812 10.09194,10.09194 0 0 1 0.02168,0.527758 10.09194,10.09194 0 0 1 -0.0059,0.528433 10.09194,10.09194 0 0 1 -0.03348,0.527616 10.09194,10.09194 0 0 1 -0.06045,0.524902 10.09194,10.09194 0 0 1 -0.08821,0.520463 10.09194,10.09194 0 0 1 -0.115746,0.515391 10.09194,10.09194 0 0 1 -0.142191,0.509283 10.09194,10.09194 0 0 1 -0.168979,0.500184 10.09194,10.09194 0 0 1 -0.659748,1.440247 10.09194,10.09194 0 0 1 -0.87743,1.318169 10.09194,10.09194 0 0 1 -1.07225,1.165033 10.09194,10.09194 0 0 1 -1.241519,0.983262 10.09194,10.09194 0 0 1 -1.380246,0.776836 10.09194,10.09194 0 0 1 -1.484127,0.551635 10.09194,10.09194 0 0 1 -1.552658,0.31214 10.09194,10.09194 0 0 1 -1.5820025,0.0655 10.09194,10.09194 0 0 1 -0.721432,-0.08371 10.09194,10.09194 0 0 0 0.714352,0.474743 10.09194,10.09194 0 0 0 1.4393825,0.660153 10.09194,10.09194 0 0 0 1.52509,0.426285 10.09194,10.09194 0 0 0 1.573384,0.183 10.09194,10.09194 0 0 0 1.582003,-0.0655 10.09194,10.09194 0 0 0 1.552656,-0.31214 10.09194,10.09194 0 0 0 1.484127,-0.551635 10.09194,10.09194 0 0 0 1.380245,-0.776836 10.09194,10.09194 0 0 0 1.241522,-0.983262 10.09194,10.09194 0 0 0 1.07225,-1.165033 10.09194,10.09194 0 0 0 0.877429,-1.318169 10.09194,10.09194 0 0 0 0.659761,-1.440241 10.09194,10.09194 0 0 0 0.168965,-0.50019 10.09194,10.09194 0 0 0 0.142193,-0.509284 10.09194,10.09194 0 0 0 0.115746,-0.51539 10.09194,10.09194 0 0 0 0.08821,-0.520463 10.09194,10.09194 0 0 0 0.06045,-0.524902 10.09194,10.09194 0 0 0 0.03348,-0.527616 10.09194,10.09194 0 0 0 0.0059,-0.528435 A 10.09194,10.09194 0 0 0 23.71128,15.144418 10.09194,10.09194 0 0 0 23.66165,14.618606 10.09194,10.09194 0 0 0 23.58509,14.095832 10.09194,10.09194 0 0 0 23.480912,13.577987 10.09194,10.09194 0 0 0 23.349513,13.065946 10.09194,10.09194 0 0 0 23.191695,12.561429 10.09194,10.09194 0 0 0 23.00826,12.066164 10.09194,10.09194 0 0 0 22.798112,11.581186 10.09194,10.09194 0 0 0 22.563548,11.108051 10.09194,10.09194 0 0 0 22.304334,10.647394 10.09194,10.09194 0 0 0 22.021908,10.201171 10.09194,10.09194 0 0 0 21.715802,9.7706475 10.09194,10.09194 0 0 0 21.387914,9.3565195 10.09194,10.09194 0 0 0 21.038646,8.9596505 10.09194,10.09194 0 0 0 20.668795,8.5817665 10.09194,10.09194 0 0 0 20.28003,8.2241945 10.09194,10.09194 0 0 0 19.873612,7.8873995 10.09194,10.09194 0 0 0 19.44931,7.5720126 10.09194,10.09194 0 0 0 19.009423,7.2795923 10.09194,10.09194 0 0 0 18.55458,7.010371 10.09194,10.09194 0 0 0 18.086447,6.7656747 10.09194,10.09194 0 0 0 17.60652,6.545336 10.09194,10.09194 0 0 0 17.115199,6.3502173 10.09194,10.09194 0 0 0 15.590107,5.923933 10.09194,10.09194 0 0 0 14.798644,5.8317591 Z"
       style="fill:none;stroke:#008e53;stroke-width:0.591431;stroke-linecap:round;stroke-linejoin:round;stroke-dasharray:none;stroke-opacity:1;paint-order:stroke markers fill"
       id="path2" />
  </g>
</svg>
