<?xml version="1.0" encoding="UTF-8" standalone="no"?>
<!-- Created with Inkscape (http://www.inkscape.org/) -->

<svg
   width="500"
   height="500"
   viewBox="0 0 132.29167 132.29167"
   version="1.1"
   id="svg1"
   inkscape:export-filename="name.svg"
   inkscape:export-xdpi="44.444443"
   inkscape:export-ydpi="44.444443"
   xmlns:inkscape="http://www.inkscape.org/namespaces/inkscape"
   xmlns:sodipodi="http://sodipodi.sourceforge.net/DTD/sodipodi-0.dtd"
   xmlns="http://www.w3.org/2000/svg"
   xmlns:svg="http://www.w3.org/2000/svg">
  <sodipodi:namedview
     id="namedview1"
     pagecolor="#ffffff"
     bordercolor="#999999"
     borderopacity="1"
     inkscape:showpageshadow="2"
     inkscape:pageopacity="0"
     inkscape:pagecheckerboard="0"
     inkscape:deskcolor="#d1d1d1"
     inkscape:document-units="mm" />
  <defs
     id="defs1" />
  <g
     inkscape:label="Layer 1"
     inkscape:groupmode="layer"
     id="layer1">
    <g
       id="text11"
       style="font-size:39.528px;line-height:0.8;font-family:'Bright DEMO';-inkscape-font-specification:'Bright DEMO, Normal';text-align:center;text-anchor:middle;fill:#008e53;stroke-width:0.153288;stroke-linejoin:bevel;paint-order:stroke markers fill"
       aria-label="Tuan&#10;Anh&#10;Luong">
      <path
         d="M 49.727339,19.463266 H 32.493132 c -0.751032,0 -0.9882,0.316224 -1.067256,1.067256 -0.118584,1.067256 -0.553392,3.122712 -0.553392,3.399408 0,0.434808 0.632448,0.513864 0.9882,0.158112 1.304424,-1.264896 3.992328,-3.517992 5.573448,-3.517992 h 0.909144 v 8.933328 c 0,2.76696 -0.316224,7.984656 -1.818288,9.09144 -0.39528,0.316224 -0.39528,0.9882 0.434808,0.9882 h 8.300879 c 0.869616,0 0.830088,-0.671976 0.434808,-0.9882 -1.502064,-1.106784 -1.818288,-6.32448 -1.818288,-9.09144 V 20.57005 h 0.909144 c 1.58112,0 4.269024,2.253096 5.573448,3.517992 0.39528,0.355752 0.9882,0.276696 0.9882,-0.158112 0,-0.276696 -0.434808,-2.332152 -0.553392,-3.399408 -0.07906,-0.751032 -0.316224,-1.067256 -1.067256,-1.067256 z m 13.320936,6.52212 c 0.07906,-0.513864 0.434808,-1.146312 -0.39528,-0.9882 -1.462536,0.316224 -3.083184,2.885544 -6.877872,2.885544 -0.39528,0 -0.553392,0.474336 -0.158112,0.79056 1.38348,1.067256 1.620648,1.936872 1.620648,3.399408 v 3.320352 c -0.513864,1.18584 -1.264896,2.37168 -2.094984,2.37168 -2.9646,0 -3.122712,-7.075512 -2.134512,-11.779344 0.118584,-0.513864 0.474336,-1.146312 -0.355752,-0.9882 -1.502064,0.316224 -3.083184,2.885544 -6.877872,2.885544 -0.39528,0 -0.553392,0.474336 -0.158112,0.79056 1.38348,1.067256 1.620648,1.936872 1.620648,3.399408 0,5.850144 2.727432,7.51032 6.284952,7.51032 1.77876,0 3.004128,-1.027728 3.873744,-2.292624 0.39528,1.146312 1.502064,2.292624 3.241296,2.292624 h 3.636576 c 0.39528,0 0.474336,-0.434808 0.118584,-0.830088 -2.450736,-2.925072 -1.857816,-9.605304 -1.343952,-12.767544 z M 81.033494,38.75293 c -1.38348,-1.027728 -1.620648,-1.897344 -1.620648,-3.35988 v -3.241296 c 0,-4.269024 -3.201768,-7.194096 -7.431264,-7.194096 -3.636576,0 -5.612976,1.818288 -5.612976,3.517992 0,2.292624 5.9292,1.502064 5.099112,-0.434808 -0.474336,-1.027728 -0.474336,-1.9764 0.118584,-1.9764 1.423008,0 2.292624,2.608848 2.292624,4.901472 v 1.18584 C 73.00931,31.005442 71.586302,30.25441 70.005182,30.25441 c -2.648376,0 -4.822416,2.094984 -4.822416,4.664304 0,2.56932 2.17404,4.664304 4.822416,4.664304 1.58112,0 3.004128,-0.751032 3.873744,-1.897344 0,0 0.830088,1.897344 2.9646,1.897344 h 4.031856 c 0.434808,0 0.553392,-0.513864 0.158112,-0.830088 z m -9.28908,-1.304424 c -1.067256,0 -1.936872,-1.146312 -1.936872,-2.529792 0,-1.38348 0.869616,-2.529792 1.936872,-2.529792 1.106784,0 1.9764,1.146312 1.9764,2.529792 0,1.38348 -0.869616,2.529792 -1.9764,2.529792 z m 29.606506,1.304424 c -1.383479,-1.027728 -1.620647,-1.897344 -1.620647,-3.35988 v -2.608848 c 0,-4.34808 -2.727432,-7.826544 -6.996456,-7.826544 -1.264896,0 -2.292624,0.830088 -3.083184,1.857816 l 0.118584,-0.830088 c 0.07906,-0.513864 0.474336,-1.146312 -0.355752,-0.9882 -1.502064,0.316224 -3.083184,2.885544 -6.877872,2.885544 -0.39528,0 -0.553392,0.474336 -0.158112,0.79056 1.38348,1.067256 1.620648,1.936872 1.620648,3.399408 v 3.320352 c 0,1.462536 -0.237168,2.332152 -1.620648,3.35988 -0.39528,0.316224 -0.237168,0.830088 0.158112,0.830088 h 7.70796 c 0.830088,0 0.830088,-0.671976 0.39528,-0.9882 -1.18584,-0.909144 -1.739232,-4.110912 -1.304424,-9.130968 0.671976,-1.502064 1.462536,-2.687904 2.253096,-2.687904 2.727432,0 3.873744,9.526248 1.343952,11.818872 -0.39528,0.355752 -0.434808,0.9882 0.39528,0.9882 h 7.866073 c 0.39528,0 0.55339,-0.513864 0.15811,-0.830088 z"
         id="path14" />
      <path
         d="M 55.953006,70.37533 C 54.29283,69.347602 54.174246,68.477986 53.739438,67.01545 53.660382,66.857338 50.102862,55.157051 50.063334,54.998939 49.588998,53.536403 48.047406,51.085667 45.59667,51.085667 h -3.834216 c -0.434808,0 -0.711504,0.474336 -0.39528,0.79056 1.027728,1.027728 0.909144,2.292624 0.474336,3.75516 l -3.517992,11.423591 c -0.632448,1.818288 -1.58112,2.648376 -2.76696,3.320352 -0.513864,0.316224 -0.237168,0.830088 0.158112,0.830088 h 5.968728 c 0.39528,0 0.553392,-0.513864 0.237168,-0.830088 -2.37168,-2.292624 -2.094984,-4.269024 -1.77876,-5.375808 h 6.877872 c 0.355752,2.37168 0.39528,4.427136 -0.316224,5.375808 -0.237168,0.355752 0,0.830088 0.39528,0.830088 h 8.775216 c 0.39528,0 0.59292,-0.513864 0.07906,-0.830088 z M 40.497558,63.892738 43.42263,54.326963 c 0.830088,0.751032 2.56932,5.375808 3.399408,9.565775 z m 35.614763,6.482592 c -1.38348,-1.027728 -1.620648,-1.897344 -1.620648,-3.35988 v -2.608848 c 0,-4.348079 -2.727432,-7.826543 -6.996456,-7.826543 -1.264896,0 -2.292624,0.830088 -3.083184,1.857816 l 0.118584,-0.830088 c 0.07906,-0.513864 0.474336,-1.146312 -0.355752,-0.9882 -1.502064,0.316224 -3.083184,2.885544 -6.877872,2.885544 -0.39528,0 -0.553392,0.474336 -0.158112,0.79056 1.38348,1.067256 1.620648,1.936871 1.620648,3.399407 v 3.320352 c 0,1.462536 -0.237168,2.332152 -1.620648,3.35988 -0.39528,0.316224 -0.237168,0.830088 0.158112,0.830088 h 7.70796 c 0.830088,0 0.830088,-0.671976 0.39528,-0.9882 -1.18584,-0.909144 -1.739232,-4.110912 -1.304424,-9.130967 0.671976,-1.502064 1.462536,-2.687904 2.253096,-2.687904 2.727432,0 3.873744,9.526247 1.343952,11.818871 -0.39528,0.355752 -0.434808,0.9882 0.39528,0.9882 h 7.866072 c 0.39528,0 0.553392,-0.513864 0.158112,-0.830088 z m 20.475477,0 C 95.243846,69.347602 94.96715,68.477986 94.96715,67.01545 v -2.608848 c 0,-4.348079 -2.687904,-7.826543 -6.996456,-7.826543 -1.541592,0 -2.727432,0.869616 -3.597048,1.9764 0.07906,-2.17404 0.276696,-4.387608 0.671976,-6.482592 0.07906,-0.513864 0.434808,-1.18584 -0.39528,-0.9882 -1.462536,0.276696 -3.201768,2.885544 -6.996456,2.885544 -0.39528,0 -0.553392,0.474336 -0.158112,0.79056 1.38348,1.027728 1.620648,1.897344 1.620648,3.35988 v 8.893799 c 0,1.462536 -0.237168,2.332152 -1.620648,3.35988 -0.39528,0.316224 -0.237168,0.830088 0.158112,0.830088 h 7.826544 c 0.869616,0 0.830088,-0.671976 0.434808,-0.9882 -0.948672,-0.711504 -1.58112,-4.782888 -1.58112,-9.565775 0.751032,-1.541592 1.77876,-2.411208 2.490264,-2.411208 2.727432,0 3.913272,9.684359 1.343952,11.976983 -0.355752,0.355752 -0.39528,0.9882 0.434808,0.9882 h 7.866072 c 0.39528,0 0.553392,-0.513864 0.118584,-0.830088 z"
         id="path15" />
      <path
         d="m 36.999398,97.293899 c -1.027728,1.38348 -3.438936,4.427131 -5.889672,4.427131 h -1.304424 c -1.304424,-1.38348 -1.462536,-6.324475 -1.462536,-8.972851 0,-2.76696 0.158112,-7.945128 1.620648,-9.09144 0.434808,-0.316224 0.434808,-0.948672 -0.39528,-0.948672 H 21.34631 c -0.39528,0 -0.553392,0.474336 -0.158112,0.79056 1.38348,1.027728 1.620648,1.936872 1.620648,3.35988 v 11.779344 c 0,1.462539 -0.237168,2.332149 -1.620648,3.359879 -0.39528,0.31622 -0.237168,0.83009 0.158112,0.83009 h 14.704416 c 0.751032,0 0.9882,-0.31623 1.067256,-1.10679 0.118584,-1.06725 0.711504,-3.992323 0.711504,-4.269019 0,-0.434808 -0.513864,-0.553392 -0.830088,-0.158112 z m 18.578118,-8.063712 c 0.07906,-0.513864 0.434808,-1.146312 -0.39528,-0.9882 -1.462536,0.316224 -3.083184,2.885544 -6.877872,2.885544 -0.39528,0 -0.553392,0.474336 -0.158112,0.79056 1.38348,1.067256 1.620648,1.936872 1.620648,3.399408 v 3.320352 c -0.513864,1.18584 -1.264896,2.371679 -2.094984,2.371679 -2.9646,0 -3.122712,-7.075511 -2.134512,-11.779343 0.118584,-0.513864 0.474336,-1.146312 -0.355752,-0.9882 -1.502064,0.316224 -3.083184,2.885544 -6.877872,2.885544 -0.39528,0 -0.553392,0.474336 -0.158112,0.79056 1.38348,1.067256 1.620648,1.936872 1.620648,3.399408 0,5.850141 2.727432,7.510321 6.284952,7.510321 1.77876,0 3.004128,-1.02773 3.873744,-2.29263 0.39528,1.14632 1.502064,2.29263 3.241296,2.29263 h 3.636576 c 0.39528,0 0.474336,-0.43481 0.118584,-0.83009 -2.450736,-2.925071 -1.857816,-9.605303 -1.343952,-12.767543 z m 10.040092,-1.027728 c -4.387608,0 -7.9056,3.280824 -7.9056,7.31268 0,4.031856 3.517992,7.312681 7.9056,7.312681 4.34808,0 7.866072,-3.280825 7.866072,-7.312681 0,-4.031856 -3.517992,-7.31268 -7.866072,-7.31268 z m 0,13.518571 c -1.264896,0 -2.292624,-2.806483 -2.292624,-6.205891 0,-3.438936 1.027728,-6.205896 2.292624,-6.205896 1.225368,0 2.253096,2.76696 2.253096,6.205896 0,3.399408 -1.027728,6.205891 -2.253096,6.205891 z m 28.104378,0.2767 c -1.38348,-1.02773 -1.620648,-1.89734 -1.620648,-3.359879 v -2.608848 c 0,-4.34808 -2.727432,-7.826544 -6.996456,-7.826544 -1.264896,0 -2.292624,0.830088 -3.083184,1.857816 l 0.118584,-0.830088 c 0.07906,-0.513864 0.474336,-1.146312 -0.355752,-0.9882 -1.502064,0.316224 -3.083184,2.885544 -6.877872,2.885544 -0.39528,0 -0.553392,0.474336 -0.158112,0.79056 1.38348,1.067256 1.620648,1.936872 1.620648,3.399408 v 3.320352 c 0,1.462539 -0.237168,2.332149 -1.620648,3.359879 -0.39528,0.31622 -0.237168,0.83009 0.158112,0.83009 h 7.70796 c 0.830088,0 0.830088,-0.67198 0.39528,-0.9882 -1.18584,-0.90915 -1.739232,-4.110913 -1.304424,-9.130969 0.671976,-1.502064 1.462536,-2.687904 2.253096,-2.687904 2.727432,0 3.873744,9.526248 1.343952,11.818873 -0.39528,0.35575 -0.434808,0.9882 0.39528,0.9882 h 7.866072 c 0.39528,0 0.553392,-0.51387 0.158112,-0.83009 z m 14.822974,-1.30442 c -3.28083,-1.739235 -9.249555,1.38348 -10.316811,0 -0.39528,-0.47434 0.07906,-0.909147 0.632448,-1.343955 1.106784,0.355752 2.371683,0.59292 3.715633,0.59292 4.78289,0 8.65663,-2.648376 8.65663,-5.889672 0,-2.450736 -2.2531,-4.54572 -5.41534,-5.415336 0.75104,-0.474336 2.29263,-0.158112 3.75516,0.07906 2.13452,0.316224 2.33216,-3.35988 -0.27669,-3.478464 -2.21357,-0.07906 -4.11091,1.423008 -4.50619,3.16224 -0.71151,-0.118584 -1.46254,-0.19764 -2.21357,-0.19764 -4.782889,0 -8.656633,2.648376 -8.656633,5.850144 0,1.9764 1.423008,3.715632 3.636576,4.782888 -0.830088,0.671976 -1.620648,1.620645 -1.38348,2.253095 0.513864,1.62064 2.529792,1.10678 4.782887,1.38348 6.40354,0.79056 8.37994,7.58937 5.02006,8.85427 -3.04366,1.18584 -7.945131,-1.69971 -7.115043,-5.53392 0.711504,-3.20177 -7.747488,-2.45074 -6.32448,1.42301 1.067256,2.92507 4.861944,5.61297 9.882003,5.61297 7.15456,0 12.37226,-8.81474 6.12684,-12.13509 z m -5.96873,-11.384067 c 1.26489,0 2.29262,2.134512 2.29262,4.74336 0,2.648376 -1.02773,4.782888 -2.29262,4.782888 -1.2649,0 -2.29263,-2.134512 -2.29263,-4.782888 0,-2.608848 1.02773,-4.74336 2.29263,-4.74336 z"
         id="path16" />
    </g>
    <path
       d="m 101.18762,15.941134 a 7.7826256,7.7812786 0 0 1 -0.14942,1.517613 7.7826256,7.7812786 0 0 1 -0.44281,1.459737 7.7826256,7.7812786 0 0 1 -0.719078,1.345277 7.7826256,7.7812786 0 0 1 -0.967884,1.179192 7.7826256,7.7812786 0 0 1 -1.179405,0.967692 7.7826256,7.7812786 0 0 1 -1.345477,0.718972 7.7826256,7.7812786 0 0 1 -1.459952,0.442821 7.7826256,7.7812786 0 0 1 -1.517696,0.149474 7.7826256,7.7812786 0 0 1 0.530749,0.0179 7.7826256,7.7812786 0 0 1 0.528415,0.05447 7.7826256,7.7812786 0 0 1 0.523753,0.09034 7.7826256,7.7812786 0 0 1 0.515957,0.125819 7.7826256,7.7812786 0 0 1 0.506628,0.160757 7.7826256,7.7812786 0 0 1 0.494178,0.194838 7.7826256,7.7812786 0 0 1 0.480163,0.228219 7.7826256,7.7812786 0 0 1 0.463046,0.260434 7.7826256,7.7812786 0 0 1 0.444371,0.2914 7.7826256,7.7812786 0 0 1 0.423354,0.32097 7.7826256,7.7812786 0 0 1 0.400781,0.349214 7.7826256,7.7812786 0 0 1 0.37589,0.375748 7.7826256,7.7812786 0 0 1 0.349418,0.400415 7.7826256,7.7812786 0 0 1 0.321414,0.423367 7.7826256,7.7812786 0 0 1 0.291055,0.4443 7.7826256,7.7812786 0 0 1 0.2607,0.463129 7.7826256,7.7812786 0 0 1 0.22803,0.47986 7.7826256,7.7812786 0 0 1 0.19455,0.494253 7.7826256,7.7812786 0 0 1 0.16109,0.50647 7.7826256,7.7812786 0 0 1 0.12608,0.516196 7.7826256,7.7812786 0 0 1 0.0903,0.523667 7.7826256,7.7812786 0 0 1 0.0545,0.528491 7.7826256,7.7812786 0 0 1 0.0156,0.531057 7.7826256,7.7812786 0 0 1 0.14942,-1.518017 7.7826256,7.7812786 0 0 1 0.44281,-1.459738 7.7826256,7.7812786 0 0 1 0.71908,-1.345277 7.7826256,7.7812786 0 0 1 0.96788,-1.179105 7.7826256,7.7812786 0 0 1 1.17941,-0.967701 7.7826256,7.7812786 0 0 1 1.34547,-0.719127 7.7826256,7.7812786 0 0 1 1.45996,-0.44282 7.7826256,7.7812786 0 0 1 1.51824,-0.149475 7.7826256,7.7812786 0 0 1 -1.51824,-0.149552 7.7826256,7.7812786 0 0 1 -1.45996,-0.442743 7.7826256,7.7812786 0 0 1 -1.34547,-0.719128 7.7826256,7.7812786 0 0 1 -1.17941,-0.9677 7.7826256,7.7812786 0 0 1 -0.96788,-1.179184 7.7826256,7.7812786 0 0 1 -0.71908,-1.345285 7.7826256,7.7812786 0 0 1 -0.44281,-1.459651 7.7826256,7.7812786 0 0 1 -0.14942,-1.517699 z"
       style="fill:#f9d7e5;fill-opacity:1;stroke:none;stroke-width:0.0309046;stroke-linejoin:bevel;stroke-dasharray:none;paint-order:stroke markers fill"
       id="path11" />
    <path
       d="m 90.916428,105.54419 a 7.7826256,7.7812786 0 0 1 -0.14942,1.51762 7.7826256,7.7812786 0 0 1 -0.442807,1.45974 7.7826256,7.7812786 0 0 1 -0.719081,1.34527 7.7826256,7.7812786 0 0 1 -0.967884,1.1792 7.7826256,7.7812786 0 0 1 -1.179405,0.96769 7.7826256,7.7812786 0 0 1 -1.345477,0.71897 7.7826256,7.7812786 0 0 1 -1.459952,0.44282 7.7826256,7.7812786 0 0 1 -1.517696,0.14948 7.7826256,7.7812786 0 0 1 0.530749,0.0179 7.7826256,7.7812786 0 0 1 0.528414,0.0545 7.7826256,7.7812786 0 0 1 0.523754,0.0903 7.7826256,7.7812786 0 0 1 0.515957,0.12582 7.7826256,7.7812786 0 0 1 0.506628,0.16076 7.7826256,7.7812786 0 0 1 0.494177,0.19484 7.7826256,7.7812786 0 0 1 0.480164,0.22822 7.7826256,7.7812786 0 0 1 0.463046,0.26043 7.7826256,7.7812786 0 0 1 0.444371,0.29139 7.7826256,7.7812786 0 0 1 0.423354,0.32097 7.7826256,7.7812786 0 0 1 0.400781,0.34922 7.7826256,7.7812786 0 0 1 0.37589,0.37575 7.7826256,7.7812786 0 0 1 0.349418,0.40041 7.7826256,7.7812786 0 0 1 0.321414,0.42337 7.7826256,7.7812786 0 0 1 0.29105,0.4443 7.7826256,7.7812786 0 0 1 0.260706,0.46313 7.7826256,7.7812786 0 0 1 0.228025,0.47986 7.7826256,7.7812786 0 0 1 0.194551,0.49425 7.7826256,7.7812786 0 0 1 0.161092,0.50647 7.7826256,7.7812786 0 0 1 0.126077,0.5162 7.7826256,7.7812786 0 0 1 0.09028,0.52367 7.7826256,7.7812786 0 0 1 0.05447,0.52849 7.7826256,7.7812786 0 0 1 0.01556,0.53105 7.7826256,7.7812786 0 0 1 0.14942,-1.51802 7.7826256,7.7812786 0 0 1 0.442807,-1.45973 7.7826256,7.7812786 0 0 1 0.719083,-1.34528 7.7826256,7.7812786 0 0 1 0.967883,-1.1791 7.7826256,7.7812786 0 0 1 1.179405,-0.96771 7.7826256,7.7812786 0 0 1 1.345477,-0.71912 7.7826256,7.7812786 0 0 1 1.459952,-0.44282 7.7826256,7.7812786 0 0 1 1.518241,-0.14948 7.7826256,7.7812786 0 0 1 -1.518241,-0.14955 7.7826256,7.7812786 0 0 1 -1.459952,-0.44274 7.7826256,7.7812786 0 0 1 -1.345477,-0.71913 7.7826256,7.7812786 0 0 1 -1.179405,-0.9677 7.7826256,7.7812786 0 0 1 -0.967883,-1.17919 7.7826256,7.7812786 0 0 1 -0.719083,-1.34528 7.7826256,7.7812786 0 0 1 -0.442807,-1.45965 7.7826256,7.7812786 0 0 1 -0.14942,-1.5177 z"
       style="fill:#f9d7e5;fill-opacity:1;stroke:none;stroke-width:0.0309046;stroke-linejoin:bevel;stroke-dasharray:none;paint-order:stroke markers fill"
       id="path11-4" />
    <path
       d="m 16.201151,71.096676 a 7.7826256,7.7812786 0 0 1 -0.14942,1.517618 7.7826256,7.7812786 0 0 1 -0.442807,1.459735 7.7826256,7.7812786 0 0 1 -0.719083,1.345275 7.7826256,7.7812786 0 0 1 -0.967883,1.179194 7.7826256,7.7812786 0 0 1 -1.179405,0.967689 7.7826256,7.7812786 0 0 1 -1.345477,0.718974 7.7826256,7.7812786 0 0 1 -1.4599526,0.442822 7.7826256,7.7812786 0 0 1 -1.517696,0.149475 7.7826256,7.7812786 0 0 1 0.5307489,0.0179 7.7826256,7.7812786 0 0 1 0.5284146,0.05447 7.7826256,7.7812786 0 0 1 0.5237541,0.09034 7.7826256,7.7812786 0 0 1 0.515957,0.125821 7.7826256,7.7812786 0 0 1 0.506627,0.160749 7.7826256,7.7812786 0 0 1 0.494178,0.194839 7.7826256,7.7812786 0 0 1 0.480164,0.22822 7.7826256,7.7812786 0 0 1 0.463045,0.260433 7.7826256,7.7812786 0 0 1 0.444371,0.291403 7.7826256,7.7812786 0 0 1 0.423355,0.32097 7.7826256,7.7812786 0 0 1 0.400781,0.349216 7.7826256,7.7812786 0 0 1 0.375889,0.375749 7.7826256,7.7812786 0 0 1 0.349418,0.400408 7.7826256,7.7812786 0 0 1 0.321414,0.42337 7.7826256,7.7812786 0 0 1 0.291052,0.4443 7.7826256,7.7812786 0 0 1 0.260706,0.463132 7.7826256,7.7812786 0 0 1 0.228025,0.47986 7.7826256,7.7812786 0 0 1 0.194551,0.494248 7.7826256,7.7812786 0 0 1 0.161092,0.506477 7.7826256,7.7812786 0 0 1 0.126077,0.5162 7.7826256,7.7812786 0 0 1 0.09028,0.52366 7.7826256,7.7812786 0 0 1 0.05447,0.52849 7.7826256,7.7812786 0 0 1 0.01556,0.53106 7.7826256,7.7812786 0 0 1 0.149421,-1.51802 7.7826256,7.7812786 0 0 1 0.442807,-1.459749 7.7826256,7.7812786 0 0 1 0.719083,-1.345274 7.7826256,7.7812786 0 0 1 0.967883,-1.179102 7.7826256,7.7812786 0 0 1 1.179405,-0.967704 7.7826256,7.7812786 0 0 1 1.345477,-0.719129 7.7826256,7.7812786 0 0 1 1.459953,-0.442815 7.7826256,7.7812786 0 0 1 1.518241,-0.149475 7.7826256,7.7812786 0 0 1 -1.518241,-0.149553 7.7826256,7.7812786 0 0 1 -1.459953,-0.442744 7.7826256,7.7812786 0 0 1 -1.345477,-0.71913 7.7826256,7.7812786 0 0 1 -1.179405,-0.967696 7.7826256,7.7812786 0 0 1 -0.967883,-1.179187 7.7826256,7.7812786 0 0 1 -0.719083,-1.345283 7.7826256,7.7812786 0 0 1 -0.442807,-1.459649 7.7826256,7.7812786 0 0 1 -0.14942,-1.517704 z"
       style="fill:#f9d7e5;fill-opacity:1;stroke:none;stroke-width:0.0309046;stroke-linejoin:bevel;stroke-dasharray:none;paint-order:stroke markers fill"
       id="path11-3" />
  </g>
</svg>
