<?xml version="1.0" encoding="UTF-8" standalone="no"?>
<!-- Created with Inkscape (http://www.inkscape.org/) -->

<svg
   width="1200"
   height="630"
   viewBox="0 0 317.5 166.6875"
   version="1.1"
   id="svg1"
   xmlns:inkscape="http://www.inkscape.org/namespaces/inkscape"
   xmlns:sodipodi="http://sodipodi.sourceforge.net/DTD/sodipodi-0.dtd"
   xmlns="http://www.w3.org/2000/svg"
   xmlns:svg="http://www.w3.org/2000/svg">
  <sodipodi:namedview
     id="namedview1"
     pagecolor="#ffffff"
     bordercolor="#999999"
     borderopacity="1"
     inkscape:showpageshadow="2"
     inkscape:pageopacity="0"
     inkscape:pagecheckerboard="0"
     inkscape:deskcolor="#d1d1d1"
     inkscape:document-units="mm"
     inkscape:export-bgcolor="#ffffff00" />
  <defs
     id="defs1" />
  <g
     inkscape:label="Layer 1"
     inkscape:groupmode="layer"
     id="layer1">
    <rect
       style="opacity:1;fill:#f4fafc;fill-opacity:1;stroke:none;stroke-width:1.79566;stroke-linecap:round;stroke-linejoin:round;stroke-dasharray:none;stroke-opacity:1;paint-order:stroke markers fill"
       id="rect31"
       width="317.5"
       height="166.6875"
       x="0"
       y="0" />
    <text
       xml:space="preserve"
       style="font-size:33.8667px;line-height:1;font-family:'Bright DEMO';-inkscape-font-specification:'Bright DEMO, Normal';text-align:center;text-anchor:middle;opacity:1;fill:#008e53;fill-opacity:1;stroke-width:1.00758;stroke-linecap:round;stroke-linejoin:round;paint-order:stroke markers fill"
       x="158.9444"
       y="91.690109"
       id="text1"><tspan
         sodipodi:role="line"
         id="tspan1"
         style="font-size:33.8667px;fill:#008e53;fill-opacity:1;stroke-width:1.00758"
         x="158.9444"
         y="91.690109">Tuan Anh Luong</tspan></text>
    <path
       d="m 265.81903,59.780706 a 10.000039,10.000039 0 0 1 -0.19209,1.95084 10.000039,10.000039 0 0 1 -0.56907,1.87594 10.000039,10.000039 0 0 1 -0.92411,1.72884 10.000039,10.000039 0 0 1 -1.24357,1.51547 10.000039,10.000039 0 0 1 -1.51548,1.24358 10.000039,10.000039 0 0 1 -1.72884,0.92411 10.000039,10.000039 0 0 1 -1.87594,0.56906 10.000039,10.000039 0 0 1 -1.95084,0.1921 v 0.0552 a 10.000039,10.000039 0 0 1 0.62901,0.0215 10.000039,10.000039 0 0 1 0.67929,0.0699 10.000039,10.000039 0 0 1 0.67284,0.11603 10.000039,10.000039 0 0 1 0.66343,0.16167 10.000039,10.000039 0 0 1 0.6508,0.20653 10.000039,10.000039 0 0 1 0.63519,0.25049 10.000039,10.000039 0 0 1 0.61664,0.2933 10.000039,10.000039 0 0 1 0.59523,0.33468 10.000039,10.000039 0 0 1 0.57099,0.37452 10.000039,10.000039 0 0 1 0.54405,0.41255 10.000039,10.000039 0 0 1 0.51466,0.44878 10.000039,10.000039 0 0 1 0.48281,0.4828 10.000039,10.000039 0 0 1 0.44878,0.51466 10.000039,10.000039 0 0 1 0.41254,0.54405 10.000039,10.000039 0 0 1 0.37452,0.57099 10.000039,10.000039 0 0 1 0.33468,0.59524 10.000039,10.000039 0 0 1 0.2933,0.61662 10.000039,10.000039 0 0 1 0.25049,0.6352 10.000039,10.000039 0 0 1 0.20654,0.6508 10.000039,10.000039 0 0 1 0.16166,0.66343 10.000039,10.000039 0 0 1 0.11603,0.67285 10.000039,10.000039 0 0 1 0.0698,0.67928 10.000039,10.000039 0 0 1 0.0215,0.62901 h 0.007 a 10.000039,10.000039 0 0 1 0.18694,-1.89747 10.000039,10.000039 0 0 1 0.56906,-1.87594 10.000039,10.000039 0 0 1 0.92411,-1.72897 10.000039,10.000039 0 0 1 1.24358,-1.51534 10.000039,10.000039 0 0 1 1.51534,-1.24358 10.000039,10.000039 0 0 1 1.72897,-0.92411 10.000039,10.000039 0 0 1 1.87594,-0.56906 10.000039,10.000039 0 0 1 1.95084,-0.19222 10.000039,10.000039 0 0 1 0.0534,0.002 v -0.0552 a 10.000039,10.000039 0 0 1 -1.95084,-0.1921 10.000039,10.000039 0 0 1 -1.87594,-0.56906 10.000039,10.000039 0 0 1 -1.72897,-0.92411 10.000039,10.000039 0 0 1 -1.51534,-1.24358 10.000039,10.000039 0 0 1 -1.24358,-1.51547 10.000039,10.000039 0 0 1 -0.92411,-1.72884 10.000039,10.000039 0 0 1 -0.56906,-1.87594 10.000039,10.000039 0 0 1 -0.19222,-1.95084 z"
       style="opacity:1;fill:#f9d7e5;fill-opacity:1;stroke:none;stroke-width:0.106777;stroke-linecap:round;stroke-linejoin:round;paint-order:stroke markers fill"
       id="path25-7" />
    <path
       d="m 50.939454,85.191278 a 10.000039,10.000039 0 0 1 -0.192093,1.95084 10.000039,10.000039 0 0 1 -0.569061,1.87594 10.000039,10.000039 0 0 1 -0.924111,1.72884 10.000039,10.000039 0 0 1 -1.243578,1.51547 10.000039,10.000039 0 0 1 -1.515473,1.24358 10.000039,10.000039 0 0 1 -1.728839,0.92411 10.000039,10.000039 0 0 1 -1.875939,0.56906 10.000039,10.000039 0 0 1 -1.950843,0.1921 v 0.0552 a 10.000039,10.000039 0 0 1 0.629011,0.0215 10.000039,10.000039 0 0 1 0.679288,0.0699 10.000039,10.000039 0 0 1 0.67284,0.11603 10.000039,10.000039 0 0 1 0.663432,0.16167 10.000039,10.000039 0 0 1 0.650797,0.20653 10.000039,10.000039 0 0 1 0.635195,0.25049 10.000039,10.000039 0 0 1 0.616634,0.2933 10.000039,10.000039 0 0 1 0.59523,0.33468 10.000039,10.000039 0 0 1 0.570995,0.37452 10.000039,10.000039 0 0 1 0.544048,0.41255 10.000039,10.000039 0 0 1 0.514657,0.44878 10.000039,10.000039 0 0 1 0.48281,0.4828 10.000039,10.000039 0 0 1 0.448777,0.51466 10.000039,10.000039 0 0 1 0.412548,0.54405 10.000039,10.000039 0 0 1 0.374517,0.570992 10.000039,10.000039 0 0 1 0.334681,0.59524 10.000039,10.000039 0 0 1 0.293297,0.61662 10.000039,10.000039 0 0 1 0.250494,0.6352 10.000039,10.000039 0 0 1 0.206533,0.6508 10.000039,10.000039 0 0 1 0.161667,0.66343 10.000039,10.000039 0 0 1 0.11603,0.67285 10.000039,10.000039 0 0 1 0.06975,0.67928 10.000039,10.000039 0 0 1 0.02153,0.62901 h 0.0071 a 10.000039,10.000039 0 0 1 0.186937,-1.89747 10.000039,10.000039 0 0 1 0.56906,-1.87594 10.000039,10.000039 0 0 1 0.924112,-1.728972 10.000039,10.000039 0 0 1 1.243576,-1.51534 10.000039,10.000039 0 0 1 1.51535,-1.24358 10.000039,10.000039 0 0 1 1.728955,-0.92411 10.000039,10.000039 0 0 1 1.87594,-0.56906 10.000039,10.000039 0 0 1 1.95084,-0.19222 10.000039,10.000039 0 0 1 0.0534,0.002 v -0.0552 a 10.000039,10.000039 0 0 1 -1.95084,-0.1921 10.000039,10.000039 0 0 1 -1.87594,-0.56906 10.000039,10.000039 0 0 1 -1.728955,-0.92411 10.000039,10.000039 0 0 1 -1.51535,-1.24358 10.000039,10.000039 0 0 1 -1.243576,-1.51547 10.000039,10.000039 0 0 1 -0.924111,-1.72884 10.000039,10.000039 0 0 1 -0.56906,-1.87594 10.000039,10.000039 0 0 1 -0.192222,-1.95084 z"
       style="opacity:1;fill:#f9d7e5;fill-opacity:1;stroke:none;stroke-width:0.106777;stroke-linecap:round;stroke-linejoin:round;paint-order:stroke markers fill"
       id="path28" />
  </g>
</svg>
