<?xml version="1.0" encoding="UTF-8" standalone="no"?>
<!-- Created with Inkscape (http://www.inkscape.org/) -->

<svg
   width="120"
   height="120"
   viewBox="0 0 31.749999 31.75"
   version="1.1"
   id="svg1"
   xmlns="http://www.w3.org/2000/svg"
   xmlns:svg="http://www.w3.org/2000/svg">
  <defs
     id="defs1" />
  <g
     id="layer1"
     transform="translate(57.574144)">
    <path
       d="m -42.7755,5.8317576 a 10.09194,10.09194 0 0 1 0.119889,0.07979 10.09194,10.09194 0 0 1 0.4243,0.315387 10.09194,10.09194 0 0 1 0.406418,0.3367951 10.09194,10.09194 0 0 1 0.388766,0.357571 10.09194,10.09194 0 0 1 0.369849,0.377884 10.09194,10.09194 0 0 1 0.349269,0.396871 10.09194,10.09194 0 0 1 0.327888,0.414128 10.09194,10.09194 0 0 1 0.306105,0.430522 10.09194,10.09194 0 0 1 0.282428,0.446224 10.09194,10.09194 0 0 1 0.259212,0.460657 10.09194,10.09194 0 0 1 0.234565,0.473133 10.09194,10.09194 0 0 1 0.210149,0.4849773 10.09194,10.09194 0 0 1 0.183436,0.495263 10.09194,10.09194 0 0 1 0.157818,0.504518 10.09194,10.09194 0 0 1 0.131399,0.512041 10.09194,10.09194 0 0 1 0.104178,0.517843 10.09194,10.09194 0 0 1 0.07656,0.522774 10.09194,10.09194 0 0 1 0.04963,0.525812 10.09194,10.09194 0 0 1 0.02168,0.527758 10.09194,10.09194 0 0 1 -0.0059,0.528433 10.09194,10.09194 0 0 1 -0.03348,0.527616 10.09194,10.09194 0 0 1 -0.06045,0.524902 10.09194,10.09194 0 0 1 -0.08821,0.520463 10.09194,10.09194 0 0 1 -0.115746,0.515391 10.09194,10.09194 0 0 1 -0.142191,0.509283 10.09194,10.09194 0 0 1 -0.168979,0.500184 10.09194,10.09194 0 0 1 -0.659748,1.440247 10.09194,10.09194 0 0 1 -0.87743,1.318169 10.09194,10.09194 0 0 1 -1.07225,1.165033 10.09194,10.09194 0 0 1 -1.241519,0.983262 10.09194,10.09194 0 0 1 -1.380246,0.776836 10.09194,10.09194 0 0 1 -1.484127,0.551635 10.09194,10.09194 0 0 1 -1.552658,0.31214 10.09194,10.09194 0 0 1 -1.582003,0.0655 10.09194,10.09194 0 0 1 -0.721432,-0.08371 10.09194,10.09194 0 0 0 0.714352,0.474743 10.09194,10.09194 0 0 0 1.439383,0.660153 10.09194,10.09194 0 0 0 1.52509,0.426285 10.09194,10.09194 0 0 0 1.573384,0.183 10.09194,10.09194 0 0 0 1.582003,-0.0655 10.09194,10.09194 0 0 0 1.552656,-0.31214 10.09194,10.09194 0 0 0 1.484127,-0.551635 10.09194,10.09194 0 0 0 1.380245,-0.776836 10.09194,10.09194 0 0 0 1.241522,-0.983262 10.09194,10.09194 0 0 0 1.07225,-1.165033 10.09194,10.09194 0 0 0 0.877429,-1.318169 10.09194,10.09194 0 0 0 0.659761,-1.440241 10.09194,10.09194 0 0 0 0.168965,-0.50019 10.09194,10.09194 0 0 0 0.142193,-0.509284 10.09194,10.09194 0 0 0 0.115746,-0.51539 10.09194,10.09194 0 0 0 0.08821,-0.520463 10.09194,10.09194 0 0 0 0.06045,-0.524902 10.09194,10.09194 0 0 0 0.03348,-0.527616 10.09194,10.09194 0 0 0 0.0059,-0.528435 10.09194,10.09194 0 0 0 -0.02168,-0.527756 10.09194,10.09194 0 0 0 -0.04963,-0.525812 10.09194,10.09194 0 0 0 -0.07656,-0.522774 10.09194,10.09194 0 0 0 -0.104178,-0.517848 10.09194,10.09194 0 0 0 -0.131399,-0.512041 10.09194,10.09194 0 0 0 -0.157818,-0.504517 10.09194,10.09194 0 0 0 -0.183435,-0.495265 10.09194,10.09194 0 0 0 -0.210148,-0.484978 10.09194,10.09194 0 0 0 -0.234564,-0.473135 10.09194,10.09194 0 0 0 -0.259214,-0.460657 10.09194,10.09194 0 0 0 -0.282426,-0.446222 10.09194,10.09194 0 0 0 -0.306106,-0.4305233 10.09194,10.09194 0 0 0 -0.327888,-0.414128 10.09194,10.09194 0 0 0 -0.349268,-0.39687 10.09194,10.09194 0 0 0 -0.369851,-0.377884 10.09194,10.09194 0 0 0 -0.388765,-0.357571 10.09194,10.09194 0 0 0 -0.406418,-0.336795 10.09194,10.09194 0 0 0 -0.424302,-0.315387 10.09194,10.09194 0 0 0 -0.439887,-0.292421 10.09194,10.09194 0 0 0 -0.454843,-0.269221 10.09194,10.09194 0 0 0 -0.468133,-0.244696 10.09194,10.09194 0 0 0 -0.479927,-0.220339 10.09194,10.09194 0 0 0 -0.491321,-0.1951191 10.09194,10.09194 0 0 0 -1.525092,-0.426284 10.09194,10.09194 0 0 0 -0.791463,-0.092174 z"
       style="fill:#008e53;fill-opacity:1;stroke:none;stroke-width:0.591431;stroke-linecap:round;stroke-linejoin:round;stroke-dasharray:none;stroke-opacity:1;paint-order:stroke markers fill"
       id="path2-5" />
  </g>
</svg>
